# xmcd
#
# Track frame offsets:
#	150
#	18034
#	34240
#	50143
#	65106
#	84528
#	98630
#	117257
#	135635
#	155332
#	171173
#	190315
#	208623
#	227701
#	244328
#	272912
#
# Disc length: 3653 seconds
#
# Revision: 1
# Processed by: cddbd v1.5.1PL0 Copyright (c) Steve Scherf et al.
# Submitted via: audiograbber 1.83.01
#
DISCID=e20e4310
DTITLE=Country Hits Of The Month - CB60326
DYEAR=2004
DGENRE=Country
TTITLE0=Urban, Keith - Days Go By
TTITLE1=Wilson, Gretchen - Here For The Party
TTITLE2=Flatts, Rascal - Feels Like Today
TTITLE3=Jackson, Alan - To Much Of A Good Thing Is A Good Thing
TTITLE4=Twain, Shania - When You Kiss Me
TTITLE5=Dean, Billy - Thank God I'm A Country Boy
TTITLE6=Strait, George - I Hate Everything
TTITLE7=Cochran, Anita - I Want To Hear A Cheating Song
TTITLE8=Chesnutt. Mark - Lord Loves The Drinkin' Man, The
TTITLE9=Walker, Clay - Jesus Was A Country Boy
TTITLE10=Coffey, Kellie - Dance With My Father
TTITLE11=Black, Clint - My Imagination
TTITLE12=SheDaisy - Come Home Soon
TTITLE13=Brooks and Dunn - That's What It's All About
TTITLE14=Restless Heart - Fell My Way To You
TTITLE15=N/A - N/a
EXTD=
EXTT0=
EXTT1=
EXTT2=
EXTT3=
EXTT4=
EXTT5=
EXTT6=
EXTT7=
EXTT8=
EXTT9=
EXTT10=
EXTT11=
EXTT12=
EXTT13=
EXTT14=
EXTT15=
PLAYORDER=
